<svg id="line_color" height="512" viewBox="0 0 74 74" width="512" xmlns="http://www.w3.org/2000/svg" data-name="line color"><rect fill="#fcd462" height="43.321" rx="5.58" width="43.321" x="15.34" y="5"/><g opacity=".4"><path d="m53.08 5h-32.16a5.579 5.579 0 0 0 -5.179 3.509 5.565 5.565 0 0 1 2.179-.441h32.161a5.58 5.58 0 0 1 5.58 5.58v32.16a5.548 5.548 0 0 1 -.4 2.071 5.582 5.582 0 0 0 3.4-5.138v-32.161a5.58 5.58 0 0 0 -5.581-5.58z" fill="#f7be56"/></g><path d="m33.355 65.993v-17.677h7.288v17.677" fill="#e1e6e9"/><path d="m40.644 66.493a.5.5 0 0 1 -.5-.5v-17.177h-6.289v17.177a.5.5 0 0 1 -1 0v-17.677a.5.5 0 0 1 .5-.5h7.289a.5.5 0 0 1 .5.5v17.677a.5.5 0 0 1 -.5.5z" fill="#323c6b"/><path d="m48.9 73c-.37-4.121-5.547-7.39-11.9-7.39s-11.529 3.269-11.9 7.39z" fill="#9297ab"/><path d="m48.9 73.5h-23.8a.5.5 0 0 1 -.5-.545c.395-4.4 5.84-7.845 12.4-7.845s12 3.446 12.4 7.845a.5.5 0 0 1 -.5.545zm-23.22-1h22.641c-.744-3.625-5.562-6.39-11.321-6.39s-10.577 2.765-11.321 6.39z" fill="#323c6b"/><path d="m24.7 32.452h-2.1a1.744 1.744 0 0 1 -1.743-1.743v-10.992a1.7 1.7 0 0 1 1.707-1.7h25.936a2.613 2.613 0 0 1 2.54 1.99l2.036 9.676a2.233 2.233 0 0 1 -2.17 2.771h-26.206z" fill="#89c5cd"/><path d="m50.905 32.952h-28.305a2.245 2.245 0 0 1 -2.244-2.243v-10.992a2.208 2.208 0 0 1 2.207-2.2h25.937a3.106 3.106 0 0 1 3.025 2.371l2.04 9.692a2.731 2.731 0 0 1 -2.659 3.374zm-28.34-14.437a1.205 1.205 0 0 0 -1.207 1.2v10.994a1.244 1.244 0 0 0 1.242 1.243h28.3a1.733 1.733 0 0 0 1.69-2.152l-2.04-9.694a2.107 2.107 0 0 0 -2.05-1.591z" fill="#323c6b"/><path d="m52.2 25.5h-31.342v5.209a1.744 1.744 0 0 0 1.742 1.743h28.3a2.233 2.233 0 0 0 2.17-2.771z" fill="#e1e6e9"/><path d="m50.905 32.952h-28.305a2.245 2.245 0 0 1 -2.244-2.243v-5.209a.5.5 0 0 1 .5-.5h31.344a.5.5 0 0 1 .49.4l.879 4.181a2.731 2.731 0 0 1 -2.659 3.374zm-29.547-6.952v4.709a1.244 1.244 0 0 0 1.242 1.243h28.3a1.733 1.733 0 0 0 1.69-2.152l-.8-3.8z" fill="#323c6b"/><path d="m52.2 26.018h-31.342a.5.5 0 0 1 0-1h31.342a.5.5 0 1 1 0 1z" fill="#323c6b"/><path d="m28.506 26.018a.5.5 0 0 1 -.5-.5v-7.5a.5.5 0 0 1 1 0v7.5a.5.5 0 0 1 -.5.5z" fill="#323c6b"/><path d="m35.5 26.018a.5.5 0 0 1 -.5-.5v-7.5a.5.5 0 0 1 1 0v7.5a.5.5 0 0 1 -.5.5z" fill="#323c6b"/><path d="m42.5 26.015a.5.5 0 0 1 -.5-.5v-7.5a.5.5 0 0 1 1 0v7.5a.5.5 0 0 1 -.5.5z" fill="#323c6b"/><circle cx="46.572" cy="32.454" fill="#707583" r="2.726"/><path d="m46.572 35.68a3.226 3.226 0 1 1 3.228-3.226 3.229 3.229 0 0 1 -3.228 3.226zm0-5.452a2.226 2.226 0 1 0 2.228 2.226 2.229 2.229 0 0 0 -2.228-2.226z" fill="#323c6b"/><circle cx="27.43" cy="32.454" fill="#707583" r="2.726"/><g fill="#323c6b"><path d="m27.431 35.68a3.226 3.226 0 1 1 3.225-3.226 3.23 3.23 0 0 1 -3.225 3.226zm0-5.452a2.226 2.226 0 1 0 2.225 2.226 2.229 2.229 0 0 0 -2.225-2.226z"/><path d="m12.34 13.5a.5.5 0 0 1 -.5-.5v-.625a.5.5 0 0 1 1 0v.625a.5.5 0 0 1 -.5.5z"/><path d="m12.34 10.759a.5.5 0 0 1 -.5-.5v-.259a.552.552 0 0 1 .005-.071 8.842 8.842 0 0 1 1.384-4.64 8.46 8.46 0 0 1 3.847-3.209.5.5 0 1 1 .379.92 7.487 7.487 0 0 0 -3.392 2.835 7.983 7.983 0 0 0 -1.223 4.42.5.5 0 0 1 -.5.504z"/><path d="m43.644 63.188a.5.5 0 0 1 -.5-.5v-.688a.5.5 0 0 1 1 0v.688a.5.5 0 0 1 -.5.5z"/><path d="m51.683 72a.5.5 0 0 1 -.486-.382 10.365 10.365 0 0 0 -5.461-6.428.5.5 0 0 1 .477-.88 11.347 11.347 0 0 1 5.955 7.072.5.5 0 0 1 -.367.6.481.481 0 0 1 -.118.018z"/><path d="m53.08 48.821h-32.16a6.087 6.087 0 0 1 -6.08-6.08v-32.161a6.087 6.087 0 0 1 6.08-6.08h32.16a6.087 6.087 0 0 1 6.08 6.08v32.161a6.087 6.087 0 0 1 -6.08 6.08zm-32.16-43.321a5.086 5.086 0 0 0 -5.08 5.08v32.161a5.086 5.086 0 0 0 5.08 5.08h32.16a5.086 5.086 0 0 0 5.08-5.08v-32.161a5.086 5.086 0 0 0 -5.08-5.08z"/></g><path d="m33.2 44.934h-.625a.6.6 0 0 1 0-1.2h.625a.6.6 0 0 1 0 1.2z" fill="#fff"/><path d="m30.355 44.934h-9.5a.6.6 0 0 1 0-1.2h9.5a.6.6 0 0 1 0 1.2z" fill="#fff"/></svg>